# xmcd CD database file
# Copyright (C) 1997 Ti Kan
# 
# Track frame offsets:
#     150
#     4882
#     21477
#     40512
#     57622
#     76717
#     89082
#     109840
#     119610
#     141000
#     159520
#     172095
#     186577
# 
# Disc length: 2953 seconds
# 
# Revision: 1
# Processed by: cddbd v1.4b41PL1 Copyright (c) Steve Scherf et al.
# Submitted via: DiscPlay 4.0.4
# 
DISCID=b50b870d
DTITLE=Kim Snelten and Hipshake - Hallucinations and the dance of the fra fr
DTITLE=a tribesman
DYEAR=1900
DGENRE=
TTITLE0=Yaroum praise song
TTITLE1=Mellow down easy
TTITLE2=Don't do it
TTITLE3=Just your fool
TTITLE4=Losing hand
TTITLE5=Temperature
TTITLE6=Let me be your loverman
TTITLE7=Dangerous Women
TTITLE8=Born under a bad sign
TTITLE9=Accused
TTITLE10=Gator wubble
TTITLE11=Up the line
TTITLE12=Hipshake
EXTD=
EXTT0=
EXTT1=
EXTT2=
EXTT3=
EXTT4=
EXTT5=
EXTT6=
EXTT7=
EXTT8=
EXTT9=
EXTT10=
EXTT11=
EXTT12=
PLAYORDER=
